<?xml version="1.0" ?><svg id="Layer_1" style="enable-background:new 0 0 512 512;" version="1.1" viewBox="0 0 512 512" xml:space="preserve" xmlns="http://www.w3.org/2000/svg" xmlns:xlink="http://www.w3.org/1999/xlink"><g id="XMLID_19619_"><g id="XMLID_4025_"><path d="M73.3,509c-14.4,0-28-2.1-32.3-10.9c-4-8.1-3.1-20.8-2.3-31.9c0.3-4,0.6-7.7,0.6-10.8v-215    c0-3.8,0.1-7.6,0.2-11.4c0.2-8.3,0.4-16.8-0.3-25c-0.6-6.5,1-11.7,4.6-15.4c7.8-8.1,23.3-7.4,35.8-6.8c2.9,0.1,5.6,0.3,7.9,0.3    c1.7,0,3,1.3,3,3s-1.3,3-3,3c-2.4,0-5.2-0.1-8.2-0.3c-11.2-0.5-25.2-1.2-31.2,5c-2.4,2.5-3.3,6-2.9,10.7    c0.7,8.5,0.5,17.2,0.4,25.6c-0.1,3.7-0.2,7.5-0.2,11.2v215c0,3.3-0.3,7.2-0.6,11.3c-0.7,9.9-1.6,22.2,1.7,28.8    c4.7,9.5,32.1,7.7,46.8,6.7c4.3-0.3,8.1-0.5,10.9-0.5h317.7c2.2,0,5,0.1,7.9,0.3c11,0.6,27.7,1.4,34.8-5.2    c2.4-2.3,3.6-5.3,3.6-9.3c0-6.4-0.5-13.2-1-19.8c-0.5-6.6-1-13.4-1-20.1l0-191.1c0-4.8-0.1-9.9-0.3-14.8    c-0.3-10.7-0.6-21.8,0.5-32.5c0.6-5.5,0.6-18.7-10.9-21.8c-3.5-0.9-8.6-0.4-13.6,0.1c-2.9,0.3-5.7,0.6-8.1,0.6c-1.7,0-3-1.3-3-3    s1.3-3,3-3c2.2,0,4.8-0.3,7.5-0.5c5.5-0.6,11.2-1.1,15.7,0.1c11.1,3,16.8,13.5,15.3,28.2c-1.1,10.3-0.8,21.1-0.5,31.7    c0.1,4.9,0.3,10,0.3,14.9l0,191.1c0,6.4,0.5,13.1,1,19.6c0.5,6.7,1,13.6,1,20.3c0,5.6-1.9,10.2-5.5,13.6    c-8.9,8.4-26.4,7.5-39.2,6.9c-2.9-0.2-5.5-0.3-7.6-0.3H104c-2.6,0-6.2,0.2-10.5,0.5C87.3,508.5,80.2,509,73.3,509z" id="XMLID_14787_"/></g><g id="XMLID_4023_"><path d="M91.6,225c-1.6,0-3-1.3-3-3L86.9,60.2c0-2.9,0-5.8,0-8.7c0-5.6,0-11.5-0.3-17.1c-0.4-8.8,1.9-15.8,7-21    c11.6-11.7,34.5-10.8,52.8-10c3.9,0.2,7.6,0.3,10.8,0.3l217.3,0c11.4,0,22.8,0,34.2,0c0,0,0,0,0,0c7.7,0,14,2.5,18.7,7.3    c11.1,11.6,10.2,34.2,9.7,49.2c-0.1,1.5-0.1,2.8-0.2,4.1L432.3,215c-0.1,1.7-1.4,3-3.1,2.9c-1.7-0.1-3-1.4-2.9-3.1l4.6-150.7    c0-1.3,0.1-2.7,0.2-4.2c0.5-14,1.4-35-8-44.8c-3.5-3.7-8.2-5.4-14.3-5.4c0,0,0,0,0,0c-11.4,0-22.8,0-34.2,0l-217.3,0    c-3.3,0-7.1-0.2-11.1-0.3c-16.3-0.7-38.5-1.6-48.3,8.2c-3.9,3.9-5.6,9.3-5.3,16.4c0.3,5.8,0.3,11.7,0.3,17.4c0,2.9,0,5.7,0,8.6    L94.6,222C94.6,223.6,93.3,225,91.6,225C91.6,225,91.6,225,91.6,225z" id="XMLID_14786_"/></g><g id="XMLID_4021_"><path d="M257.7,353.8c-1,0-1.9-0.1-2.8-0.1l-0.8-0.1c-2.9-0.2-6.2-0.4-9.3-1.7c-2.3-0.9-3.3-2.1-4.3-3.1    c-0.4-0.4-0.8-0.9-1.4-1.3c-2.9-2.3-5.8-4.7-8.7-7l-4.2-3.3c-25.7-20.7-48.9-39.3-70.7-56.8c-23.5-18.8-48.4-38.8-73.4-58.5    c-8.1-6.4-16.4-13-24.8-19.5c-0.6-0.5-1.3-1.2-2.3-2c-1.3-1.2-4.8-4.4-6.1-4.8c-1.6-0.1-2.9-1.4-2.9-3c0-1.7,1.3-3,3-3    c2.9,0,6.2,2.8,10.1,6.4c0.8,0.7,1.5,1.4,1.9,1.7c8.4,6.5,16.8,13.1,24.9,19.5c25,19.7,50,39.7,73.4,58.5    c21.8,17.5,45,36.1,70.7,56.8l4.2,3.3c2.9,2.3,5.8,4.7,8.7,7c0.8,0.7,1.4,1.3,1.9,1.8c0.8,0.8,1.2,1.2,2.2,1.6    c2.2,0.9,4.8,1.1,7.4,1.2l0.8,0.1c1,0.1,2.1,0.2,3.1,0.1c6-0.4,11.3-5.4,16.5-10.2c1.7-1.6,3.3-3.1,4.9-4.4l180.8-147.7    c1.3-1,3.2-0.9,4.2,0.4c1,1.3,0.9,3.2-0.4,4.2L283.7,337.8c-1.5,1.2-3,2.6-4.6,4.1c-5.7,5.3-12.1,11.2-20.2,11.8    C258.5,353.8,258.1,353.8,257.7,353.8z" id="XMLID_14785_"/></g><g id="XMLID_4022_"><g id="XMLID_4027_"><path d="M180.6,190.2c-2.3,0-4.7-0.2-7.2-0.5c-8.1-1-14.4-3.1-19.5-6.5c-6.6-4.4-10.8-11.2-11.3-18.1     c-0.1-1.7,1.1-3.1,2.8-3.2c1.7-0.1,3.1,1.1,3.2,2.8c0.3,5.1,3.6,10.1,8.6,13.5c4.2,2.8,9.8,4.7,16.9,5.5c7.4,0.9,17.6,0.8,24.6-5     c5.3-4.5,7.9-12,6.4-18.8c-1.5-6.8-7.1-12.6-13.8-14.3c-2.9-0.8-6-0.9-9.3-1c-5.7-0.2-11.6-0.5-16.6-4.1     c-6.6-4.7-9.4-14.3-7.5-25.6c1.4-8.1,4.3-14.3,8.8-18.4c6.1-5.5,15.1-6.5,21-2.3c1.3,1,1.7,2.8,0.7,4.2c-1,1.3-2.8,1.7-4.2,0.7     c-4-2.9-10-1.3-13.4,1.8c-3.4,3.1-5.8,8.2-6.9,14.9c-0.6,3.4-1.9,14.7,5.1,19.7c3.6,2.5,8.3,2.8,13.4,3c3.5,0.2,7.1,0.3,10.6,1.2     c8.8,2.3,16.1,9.9,18.1,18.8c2,8.9-1.4,18.9-8.4,24.8C197.1,187.9,189.6,190.2,180.6,190.2z" id="XMLID_14782_"/></g><g id="XMLID_4031_"><path d="M338.1,183.2c-2.3,0-4.7-0.2-7.2-0.5c-8.1-1-14.4-3.1-19.5-6.5c-6.6-4.4-10.8-11.2-11.3-18.1     c-0.1-1.7,1.1-3.1,2.8-3.2c1.7-0.1,3.1,1.1,3.2,2.8c0.3,5.1,3.6,10.1,8.6,13.5c4.2,2.8,9.8,4.7,16.9,5.5c7.4,0.9,17.6,0.8,24.6-5     c5.3-4.5,7.9-12,6.4-18.8c-1.5-6.8-7.1-12.6-13.8-14.3c-2.9-0.8-6-0.9-9.3-1c-5.7-0.2-11.6-0.5-16.6-4.1     c-6.6-4.7-9.4-14.3-7.5-25.6c1.4-8.1,4.3-14.3,8.8-18.4c6.1-5.5,15.1-6.5,21-2.3c1.3,1,1.7,2.8,0.7,4.2c-1,1.3-2.8,1.7-4.2,0.7     c-4-2.9-10-1.3-13.4,1.8c-3.4,3.1-5.8,8.2-6.9,14.9c-0.6,3.4-1.9,14.7,5.1,19.7c3.6,2.5,8.3,2.8,13.4,3c3.5,0.2,7.1,0.3,10.6,1.2     c8.9,2.3,16.1,9.9,18.1,18.8c2,8.9-1.4,18.9-8.4,24.8C354.6,180.8,347.2,183.2,338.1,183.2z" id="XMLID_14781_"/></g><g id="XMLID_4028_"><path d="M230.2,183.9C230.2,183.9,230.2,183.9,230.2,183.9c-1.7,0-3-1.3-3-3c0-27.6-1-55.5-3-83     c-0.1-1.7,1.1-3.1,2.8-3.2c1.7-0.1,3.1,1.1,3.2,2.8c2.1,27.7,3.1,55.8,3.1,83.5C233.2,182.6,231.9,183.9,230.2,183.9z" id="XMLID_14780_"/></g><g id="XMLID_4029_"><path d="M286.4,178.5c-1.6,0-2.9-1.2-3-2.8L279,98.9c-9,4.5-15.6,13.5-17.2,23.5l-0.4,2.7l-2.7-0.1     c-4.9-0.3-8.7-3.8-11.2-6.1l-21.2-19.5c-1.2-1.1-1.3-3-0.2-4.2c1.1-1.2,3-1.3,4.2-0.2l21.2,19.5c1.7,1.5,3.3,3,5,3.8     c2.8-11.1,10.9-20.8,21.3-25.4c1.9-0.8,3.5-0.8,4.9,0c2,1.3,2.1,3.6,2.2,4.3l4.5,78.2c0.1,1.7-1.2,3.1-2.8,3.2     C286.5,178.5,286.5,178.5,286.4,178.5z" id="XMLID_14779_"/></g></g><g id="XMLID_4024_"><path d="M49.1,503.7c-0.8,0-1.6-0.3-2.1-0.9c-1.2-1.2-1.1-3.1,0-4.2l174-170.6c1.2-1.2,3.1-1.1,4.2,0    c1.2,1.2,1.1,3.1,0,4.2l-174,170.6C50.6,503.4,49.9,503.7,49.1,503.7z" id="XMLID_14784_"/></g><g id="XMLID_4026_"><path d="M465.9,502.4c-0.8,0-1.5-0.3-2.1-0.9L291.6,332.2c-1.2-1.2-1.2-3.1,0-4.2c1.2-1.2,3.1-1.2,4.2,0    L468,497.3c1.2,1.2,1.2,3.1,0,4.2C467.4,502.1,466.6,502.4,465.9,502.4z" id="XMLID_14783_"/></g></g></svg>